<?xml version="1.0" encoding="UTF-8"?>
<svg version="1.1" xmlns="http://www.w3.org/2000/svg" width="172" height="172">
<path d="M0 0 C56.76 0 113.52 0 172 0 C172 56.76 172 113.52 172 172 C115.24 172 58.48 172 0 172 C0 115.24 0 58.48 0 0 Z " fill="#0994FE" transform="translate(0,0)"/>
<path d="M0 0 C0.65740173 -0.00700928 1.31480347 -0.01401855 1.99212646 -0.02124023 C4.15924667 -0.03880619 6.32505466 -0.02720423 8.4921875 -0.01367188 C10.00146739 -0.01636724 11.51074558 -0.02025003 13.02001953 -0.02526855 C16.18083249 -0.03116164 19.34119284 -0.02260738 22.50195312 -0.00390625 C26.55087307 0.01888393 30.59873248 0.00575973 34.64761353 -0.01819611 C37.76350883 -0.03265965 40.87915324 -0.02804571 43.99505615 -0.01768494 C45.4877739 -0.01501915 46.98051454 -0.01828225 48.47320557 -0.02760315 C50.56087454 -0.03777883 52.64683324 -0.02225756 54.734375 0 C56.51497314 0.00477356 56.51497314 0.00477356 58.33154297 0.00964355 C61.3671875 0.51757812 61.3671875 0.51757812 63.74938965 1.87818909 C66.35404585 6.12760815 65.92302524 10.3776431 65.88476562 15.26538086 C65.8917749 16.36008698 65.89878418 17.45479309 65.90600586 18.58267212 C65.92362837 22.20576249 65.91194647 25.82807338 65.8984375 29.45117188 C65.90113136 31.96696625 65.9050129 34.48275961 65.91003418 36.99855042 C65.91593517 42.27361009 65.90772835 47.54846672 65.88867188 52.82348633 C65.86691435 58.91642055 65.87394638 65.00881912 65.8959775 71.1017403 C65.91634013 76.96868208 65.91415461 82.83542079 65.90245056 88.70237923 C65.89978087 91.19627012 65.90306152 93.69017466 65.91236877 96.18404961 C65.92252161 99.6698621 65.90704872 103.15464508 65.88476562 106.64038086 C65.89286255 107.67275375 65.90095947 108.70512665 65.90930176 109.76878357 C65.85894416 114.01860537 65.71721382 116.83550369 63.75611877 120.65696716 C60.57396959 123.13537318 58.64298772 123.15132342 54.62670898 123.16455078 C53.62356659 123.17769318 53.62356659 123.17769318 52.60015869 123.19110107 C50.39553436 123.21306059 48.19292494 123.19855958 45.98828125 123.18164062 C44.45418412 123.18500944 42.92008959 123.1898626 41.38600159 123.19613647 C38.17382346 123.20350267 34.96234128 123.19281013 31.75024414 123.16943359 C27.63152773 123.1409205 23.51443846 123.15736531 19.39578152 123.18729591 C16.22927058 123.20535607 13.06314613 123.1996175 9.89662361 123.18665695 C8.37795888 123.18332056 6.85925911 123.1874183 5.3406353 123.19905472 C3.21890049 123.2117468 1.09980908 123.19241854 -1.02172852 123.16455078 C-2.22877945 123.16057281 -3.43583038 123.15659485 -4.67945862 123.15249634 C-7.6328125 122.51757812 -7.6328125 122.51757812 -9.52075195 120.65696716 C-11.17561299 115.98523178 -11.0583294 111.56280557 -11.03686523 106.64038086 C-11.04372849 105.54392242 -11.05059174 104.44746399 -11.05766296 103.31777954 C-11.0759567 99.69544509 -11.07209031 96.07354258 -11.06640625 92.45117188 C-11.07096612 89.9344112 -11.07627111 87.41765177 -11.08229065 84.90089417 C-11.09122631 79.62765568 -11.08902621 74.35452941 -11.07885742 69.08129883 C-11.0673664 62.98777286 -11.08147071 56.89468651 -11.1082539 50.80121845 C-11.13307667 44.93375625 -11.13559045 39.06646531 -11.12913704 33.19896126 C-11.12898341 30.70423717 -11.13506157 28.20950477 -11.14742851 25.71481133 C-11.16226632 22.23133241 -11.15171424 18.74882875 -11.13452148 15.26538086 C-11.14418945 14.23098373 -11.15385742 13.19658661 -11.16381836 12.13084412 C-11.09271026 5.2683479 -11.09271026 5.2683479 -9.01600647 1.87818909 C-5.85583476 0.07398669 -3.63757089 0.00975187 0 0 Z " fill="#5EBEF9" transform="translate(57.6328125,24.482421875)"/>
<path d="M0 0 C0.65740173 -0.00700928 1.31480347 -0.01401855 1.99212646 -0.02124023 C4.15924667 -0.03880619 6.32505466 -0.02720423 8.4921875 -0.01367188 C10.00146739 -0.01636724 11.51074558 -0.02025003 13.02001953 -0.02526855 C16.18083249 -0.03116164 19.34119284 -0.02260738 22.50195312 -0.00390625 C26.55087307 0.01888393 30.59873248 0.00575973 34.64761353 -0.01819611 C37.76350883 -0.03265965 40.87915324 -0.02804571 43.99505615 -0.01768494 C45.4877739 -0.01501915 46.98051454 -0.01828225 48.47320557 -0.02760315 C50.56087454 -0.03777883 52.64683324 -0.02225756 54.734375 0 C56.51497314 0.00477356 56.51497314 0.00477356 58.33154297 0.00964355 C61.3671875 0.51757812 61.3671875 0.51757812 63.74938965 1.87818909 C66.35404585 6.12760815 65.92302524 10.3776431 65.88476562 15.26538086 C65.8917749 16.36008698 65.89878418 17.45479309 65.90600586 18.58267212 C65.92362837 22.20576249 65.91194647 25.82807338 65.8984375 29.45117188 C65.90113136 31.96696625 65.9050129 34.48275961 65.91003418 36.99855042 C65.91593517 42.27361009 65.90772835 47.54846672 65.88867188 52.82348633 C65.86691435 58.91642055 65.87394638 65.00881912 65.8959775 71.1017403 C65.91634013 76.96868208 65.91415461 82.83542079 65.90245056 88.70237923 C65.89978087 91.19627012 65.90306152 93.69017466 65.91236877 96.18404961 C65.92252161 99.6698621 65.90704872 103.15464508 65.88476562 106.64038086 C65.89286255 107.67275375 65.90095947 108.70512665 65.90930176 109.76878357 C65.85894416 114.01860537 65.71721382 116.83550369 63.75611877 120.65696716 C60.57396959 123.13537318 58.64298772 123.15132342 54.62670898 123.16455078 C53.62356659 123.17769318 53.62356659 123.17769318 52.60015869 123.19110107 C50.39553436 123.21306059 48.19292494 123.19855958 45.98828125 123.18164062 C44.45418412 123.18500944 42.92008959 123.1898626 41.38600159 123.19613647 C38.17382346 123.20350267 34.96234128 123.19281013 31.75024414 123.16943359 C27.63152773 123.1409205 23.51443846 123.15736531 19.39578152 123.18729591 C16.22927058 123.20535607 13.06314613 123.1996175 9.89662361 123.18665695 C8.37795888 123.18332056 6.85925911 123.1874183 5.3406353 123.19905472 C3.21890049 123.2117468 1.09980908 123.19241854 -1.02172852 123.16455078 C-2.22877945 123.16057281 -3.43583038 123.15659485 -4.67945862 123.15249634 C-7.6328125 122.51757812 -7.6328125 122.51757812 -9.52075195 120.65696716 C-11.17561299 115.98523178 -11.0583294 111.56280557 -11.03686523 106.64038086 C-11.04372849 105.54392242 -11.05059174 104.44746399 -11.05766296 103.31777954 C-11.0759567 99.69544509 -11.07209031 96.07354258 -11.06640625 92.45117188 C-11.07096612 89.9344112 -11.07627111 87.41765177 -11.08229065 84.90089417 C-11.09122631 79.62765568 -11.08902621 74.35452941 -11.07885742 69.08129883 C-11.0673664 62.98777286 -11.08147071 56.89468651 -11.1082539 50.80121845 C-11.13307667 44.93375625 -11.13559045 39.06646531 -11.12913704 33.19896126 C-11.12898341 30.70423717 -11.13506157 28.20950477 -11.14742851 25.71481133 C-11.16226632 22.23133241 -11.15171424 18.74882875 -11.13452148 15.26538086 C-11.14418945 14.23098373 -11.15385742 13.19658661 -11.16381836 12.13084412 C-11.09271026 5.2683479 -11.09271026 5.2683479 -9.01600647 1.87818909 C-5.85583476 0.07398669 -3.63757089 0.00975187 0 0 Z M-6.6328125 5.51757812 C-6.83178577 8.57527992 -6.90543629 11.54245027 -6.89160156 14.60131836 C-6.8951062 15.54288788 -6.89861084 16.4844574 -6.90222168 17.45455933 C-6.91105064 20.57850437 -6.90518524 23.70222438 -6.8984375 26.82617188 C-6.89978393 28.99089095 -6.90172427 31.15560973 -6.90423584 33.32032776 C-6.90718878 37.86242546 -6.90288441 42.40444462 -6.89355469 46.9465332 C-6.88216689 52.77545909 -6.88871435 58.60420067 -6.90069962 64.43311977 C-6.90791942 68.90515029 -6.9056296 73.37713696 -6.90044403 77.84916878 C-6.89910752 79.99861739 -6.90075531 82.14806996 -6.90540314 84.29751396 C-6.91046954 87.2999313 -6.90275609 90.30204844 -6.89160156 93.30444336 C-6.89565002 94.19753708 -6.89969849 95.0906308 -6.90386963 96.01078796 C-6.89822998 96.82819458 -6.89259033 97.6456012 -6.88677979 98.48777771 C-6.88602573 99.19772605 -6.88527168 99.90767439 -6.88449478 100.63913631 C-6.72822473 102.85036024 -6.72822473 102.85036024 -4.6328125 105.51757812 C-1.9081238 105.9781711 -1.9081238 105.9781711 1.32983398 105.90576172 C2.58130722 105.9152182 3.83278046 105.92467468 5.12217712 105.93441772 C6.49421504 105.92904761 7.86625007 105.92289456 9.23828125 105.91601562 C10.64071301 105.91803592 12.04314374 105.92094699 13.4455719 105.92471313 C16.38707465 105.92914008 19.32830435 105.92269487 22.26977539 105.90869141 C26.04069779 105.89161461 29.81097895 105.90142815 33.58187771 105.9194088 C36.47895639 105.93025034 39.37588312 105.92679842 42.27296638 105.91902542 C43.66323993 105.9170236 45.05352726 105.9194821 46.44378471 105.92646408 C48.38756929 105.93408193 50.33140219 105.92041229 52.27514648 105.90576172 C53.38164047 105.90337494 54.48813446 105.90098816 55.62815857 105.89852905 C58.78464003 105.45951779 59.44595299 104.9720701 61.3671875 102.51757812 C61.81485178 100.60693872 61.81485178 100.60693872 61.74813843 98.48777771 C61.7565979 97.67037109 61.76505737 96.85296448 61.77377319 96.01078796 C61.7677005 95.11769424 61.76162781 94.22460052 61.75537109 93.30444336 C61.76062805 92.36112152 61.76588501 91.41779968 61.77130127 90.44589233 C61.78452375 87.32248461 61.77575582 84.19958493 61.765625 81.07617188 C61.76764492 78.91048586 61.77055566 76.7448005 61.77432251 74.57911682 C61.77874878 70.0387627 61.77230435 65.49858553 61.75830078 60.95825195 C61.74119866 55.1280559 61.75105485 49.29827381 61.76901817 43.46809292 C61.77983908 38.99608723 61.77641763 34.52418031 61.7686348 30.05217171 C61.76662863 27.9018963 61.76910658 25.75161203 61.77607346 23.60134697 C61.78366118 20.60109436 61.77212178 17.6015202 61.75537109 14.60131836 C61.76144379 13.70620041 61.76751648 12.81108246 61.77377319 11.88883972 C61.78132095 9.17635292 61.78132095 9.17635292 61.3671875 5.51757812 C58.03661074 3.29719362 56.48739421 3.08055656 52.5546875 2.89257812 C51.53761719 2.8178125 50.52054688 2.74304688 49.47265625 2.66601562 C45.74849362 3.68723255 45.68903497 4.33154221 43.80078125 7.50585938 C41.83949955 10.38800435 40.94338662 11.36800081 37.52319336 12.25585938 C34.06533981 12.48585246 30.70487318 12.46150019 27.2421875 12.33007812 C26.06269531 12.33587891 24.88320312 12.34167969 23.66796875 12.34765625 C17.19737601 12.23355592 17.19737601 12.23355592 14.3671875 11.51757812 C12.12548828 9.15698242 12.12548828 9.15698242 10.3671875 6.51757812 C9.7071875 5.52757812 9.0471875 4.53757812 8.3671875 3.51757812 C5.31262385 3.07563609 5.31262385 3.07563609 1.8671875 3.20507812 C0.701875 3.20894531 -0.4634375 3.2128125 -1.6640625 3.21679688 C-4.75015438 3.21343394 -4.75015438 3.21343394 -6.6328125 5.51757812 Z " fill="#DAECF5" transform="translate(57.6328125,24.482421875)"/>
<path d="M0 0 C0.33 0 0.66 0 1 0 C1.12117188 0.61746094 1.24234375 1.23492187 1.3671875 1.87109375 C2.50074568 7.5999224 3.71369966 13.30352707 5 19 C5.66 19 6.32 19 7 19 C8.15625 20.65234375 8.15625 20.65234375 9.5 22.9375 C15.9109831 32.8185055 24.89351263 39.29783754 36 43 C41.96476294 43.53385142 46.95745595 43.55270149 52 40 C55.70536465 36.46900545 58.67722842 33.32573103 59 28 C59.33 28 59.66 28 60 28 C60 39.55 60 51.1 60 63 C40.2 63 20.4 63 0 63 C0 42.21 0 21.42 0 0 Z " fill="#60C2FD" transform="translate(55,63)"/>
<path d="M0 0 C0.67501053 -0.0065712 1.35002106 -0.0131424 2.04548645 -0.01991272 C4.28317371 -0.03965067 6.52079382 -0.05130962 8.75854492 -0.0612793 C9.52274939 -0.06535482 10.28695385 -0.06943035 11.07431602 -0.07362938 C15.11952825 -0.09449273 19.16470653 -0.10879299 23.20996094 -0.11816406 C27.38650817 -0.12922629 31.56252229 -0.16362266 35.73888111 -0.20333576 C38.95168543 -0.22949308 42.16436259 -0.2378551 45.37726402 -0.24144554 C46.91663906 -0.24631422 48.45600831 -0.25793635 49.99527931 -0.27648354 C52.15222914 -0.30085673 54.30779811 -0.29991424 56.46484375 -0.29296875 C58.30445427 -0.30176811 58.30445427 -0.30176811 60.18122864 -0.31074524 C64.03811969 0.26892273 65.67590551 1.46746914 68.42651367 4.17700195 C69.6382309 6.60043641 69.56290057 8.15493103 69.58041382 10.86360168 C69.58901428 11.85199539 69.59761475 12.8403891 69.60647583 13.85873413 C69.61073578 14.9470755 69.61499573 16.03541687 69.61938477 17.15673828 C69.631651 18.87151115 69.631651 18.87151115 69.64416504 20.6209259 C69.66904777 24.41695628 69.68554147 28.21294922 69.69995117 32.0090332 C69.70527485 33.30280066 69.71059853 34.59656811 69.71608353 35.92954063 C69.73731819 41.3657118 69.75644833 46.80187073 69.76770592 52.2380724 C69.78394495 60.02850087 69.81712127 67.81843057 69.87410676 75.60867101 C69.91747601 81.74680328 69.93345088 87.88473986 69.93983841 94.02301598 C69.94656858 96.63416788 69.96183603 99.24531203 69.98572922 101.8563633 C70.01723796 105.50765809 70.01743829 109.15768779 70.01000977 112.80908203 C70.0264151 113.89135071 70.04282043 114.97361938 70.0597229 116.08868408 C69.99162121 124.24971529 69.99162121 124.24971529 66.95254517 127.32499695 C66.11895477 127.9361586 65.28536438 128.54732025 64.42651367 129.17700195 C64.09651367 129.50700195 63.76651367 129.83700195 63.42651367 130.17700195 C61.27561397 130.29763394 59.12071411 130.34728091 56.96655273 130.36987305 C55.95425598 130.38213928 55.95425598 130.38213928 54.92150879 130.39465332 C52.67839455 130.41955279 50.43534389 130.43603698 48.19213867 130.45043945 C47.04445637 130.45842497 47.04445637 130.45842497 45.87358856 130.46657181 C41.82190451 130.49332639 37.77025147 130.51269162 33.71850586 130.52709961 C29.53396051 130.5437307 25.35020536 130.58848774 21.1659584 130.63947105 C17.94886378 130.67314497 14.73195637 130.68467727 11.51470184 130.69032669 C9.97251108 130.6970416 8.43033274 130.71227018 6.88831329 130.7362175 C4.72624188 130.76787122 2.56629542 130.76790692 0.40405273 130.76049805 C-0.82537048 130.7685849 -2.0547937 130.77667175 -3.32147217 130.78500366 C-7.45749831 130.01172567 -8.90807433 128.34334064 -11.57348633 125.17700195 C-11.90348633 124.84700195 -12.23348633 124.51700195 -12.57348633 124.17700195 C-12.67795952 122.65768427 -12.71311405 121.13354346 -12.72065735 119.61065674 C-12.72781265 118.6236377 -12.73496796 117.63661865 -12.74234009 116.61968994 C-12.74502899 115.5277533 -12.7477179 114.43581665 -12.75048828 113.31079102 C-12.76034508 111.59623718 -12.76034508 111.59623718 -12.770401 109.8470459 C-12.79019206 106.04557234 -12.80180969 102.2441384 -12.81176758 98.44262695 C-12.81584311 97.14794243 -12.81991863 95.8532579 -12.82411766 94.51934052 C-12.84284671 88.37426539 -12.85740644 82.22921024 -12.86572963 76.08411241 C-12.87549796 68.98882798 -12.90180252 61.89385588 -12.94223052 54.7986815 C-12.97603183 48.65574868 -12.98787499 42.51294712 -12.99193382 36.36992645 C-12.99681502 33.75599806 -13.00847222 31.14207336 -13.02697182 28.52820587 C-13.05123822 24.87214629 -13.05042054 21.21690595 -13.04345703 17.56079102 C-13.05626709 16.47695129 -13.06907715 15.39311157 -13.08227539 14.27642822 C-13.03120305 6.93386197 -13.03120305 6.93386197 -10.66911316 3.02801514 C-7.07431929 -0.14717366 -4.73975895 0.03811961 0 0 Z M-7.9566803 5.53761292 C-10.56042911 9.78815747 -10.1208779 14.03712508 -10.07519531 18.92480469 C-10.0805983 20.0195108 -10.08600128 21.11421692 -10.09156799 22.24209595 C-10.10408764 25.8652032 -10.08754075 29.4875208 -10.06958008 33.1105957 C-10.069735 35.62638897 -10.07122286 38.14218249 -10.07398987 40.65797424 C-10.07537535 45.93304085 -10.06322479 51.20790245 -10.04003906 56.48291016 C-10.01344335 62.57577573 -10.011678 68.66826042 -10.02342743 74.76116413 C-10.0342199 80.6280936 -10.02790455 86.49488427 -10.01387215 92.36180305 C-10.00935372 94.85568911 -10.00902425 97.34958636 -10.01293755 99.84347343 C-10.01584633 103.32915109 -9.99935707 106.81420572 -9.97753906 110.29980469 C-9.98204071 111.33217758 -9.98654236 112.36455048 -9.99118042 113.4282074 C-10.08119936 120.42201964 -10.08119936 120.42201964 -6.57348633 126.17700195 C-3.52759393 126.9383919 -3.52759393 126.9383919 0.03759766 126.82397461 C0.70460693 126.83273621 1.37161621 126.8414978 2.05883789 126.8505249 C4.26408933 126.87253451 6.46733557 126.85796229 8.67260742 126.84106445 C10.20573817 126.84443262 11.73886631 126.84928525 13.27198792 126.8555603 C16.48594574 126.86293396 19.69920887 126.85221292 22.91308594 126.82885742 C27.03061302 126.80039197 31.1465091 126.81675424 35.2639761 126.84671974 C38.43052932 126.86480076 41.59669685 126.8590309 44.7632618 126.84608078 C46.28110001 126.84274767 47.79897337 126.84683061 49.31677055 126.85847855 C51.44079941 126.87119957 53.56220171 126.85179943 55.68603516 126.82397461 C56.89388168 126.81999664 58.10172821 126.81601868 59.34617615 126.81192017 C62.50724215 126.39721335 62.50724215 126.39721335 64.81544495 124.31639099 C67.20048644 119.66880955 66.98452116 115.45462344 66.9440918 110.29980469 C66.95110107 109.20334625 66.95811035 108.10688782 66.96533203 106.97720337 C66.98293008 103.35474284 66.97128289 99.73306411 66.95776367 96.1105957 C66.96045785 93.59383494 66.96433965 91.07707519 66.96936035 88.56031799 C66.9752577 83.28703841 66.96706531 78.01396212 66.94799805 72.74072266 C66.92621891 66.64717985 66.93329025 60.55417218 66.95530367 54.46064228 C66.97565052 48.59316101 66.9734877 42.72588295 66.96177673 36.85838509 C66.95910544 34.36366768 66.96239328 31.86893665 66.97169495 29.37423515 C66.9818337 25.89072144 66.96639584 22.40824126 66.9440918 18.92480469 C66.95218872 17.89040756 66.96028564 16.85601044 66.96862793 15.79026794 C66.93604327 10.38634934 66.93604327 10.38634934 64.80871582 5.53761292 C61.64913761 3.73299833 59.43093016 3.66917478 55.79370117 3.65942383 C54.80759857 3.64890991 54.80759857 3.64890991 53.80157471 3.63818359 C51.6344545 3.62061764 49.46864651 3.6322196 47.30151367 3.64575195 C45.79223378 3.64305659 44.28295559 3.6391738 42.77368164 3.63415527 C39.61286868 3.62826219 36.45250833 3.63681645 33.29174805 3.65551758 C29.2428281 3.67830776 25.19496869 3.66518355 21.14608765 3.64122772 C18.03019234 3.62676418 14.91454793 3.63137812 11.79864502 3.64173889 C10.30592727 3.64440468 8.81318664 3.64114158 7.32049561 3.63182068 C5.23282664 3.621645 3.14686793 3.63716627 1.05932617 3.65942383 C-0.12773926 3.6626062 -1.31480469 3.66578857 -2.5378418 3.66906738 C-5.57910498 3.99814662 -5.57910498 3.99814662 -7.9566803 5.53761292 Z " fill="#083E78" transform="translate(56.573486328125,20.822998046875)"/>
<path d="M0 0 C0.33 0 0.66 0 1 0 C1 20.46 1 40.92 1 62 C-18.8 62 -38.6 62 -59 62 C-56.225929 60.15061933 -54.37669199 59.44748242 -51.25 58.5 C-34.21919352 52.43207028 -20.92073973 39.38550011 -11.09594727 24.63452148 C-10.05223627 23.0779064 -8.96651936 21.5497012 -7.87890625 20.0234375 C-5.81562716 16.70331689 -4.56872245 13.5098361 -3.3125 9.8125 C-2.68794922 7.99685547 -2.68794922 7.99685547 -2.05078125 6.14453125 C-1.36644248 4.09660297 -0.68281255 2.04843765 0 0 Z " fill="#FAFDFF" transform="translate(171,110)"/>
<path d="M0 0 C19.8 0 39.6 0 60 0 C60 19.8 60 39.6 60 60 C57.29345657 56.39127543 56.22235336 54.15321423 54.8125 50 C48.55664815 33.35496562 36.42478956 20.95229894 22 11 C21.32453125 10.50757813 20.6490625 10.01515625 19.953125 9.5078125 C13.90722016 5.34802327 6.91372127 3.28191643 0 1 C0 0.67 0 0.34 0 0 Z " fill="#FBFDFF" transform="translate(112,0)"/>
<path d="M0 0 C1.02139719 2.04279438 2.04074763 4.08718097 3.0078125 6.15625 C9.90363791 20.6230166 19.50906954 34.06444866 33 43 C34.21236328 43.86044922 34.21236328 43.86044922 35.44921875 44.73828125 C42.61086347 49.62074561 49.78919031 52.39891138 58 55 C58 55.33 58 55.66 58 56 C38.86 56 19.72 56 0 56 C0 37.52 0 19.04 0 0 Z " fill="#FBFDFF" transform="translate(0,116)"/>
<path d="M0 0 C18.81 0 37.62 0 57 0 C54.18025856 1.87982762 51.84324199 2.83848198 48.6875 4 C40.92427836 7.19165098 34.55745135 11.84629658 28 17 C27.08992188 17.7115625 26.17984375 18.423125 25.2421875 19.15625 C15.58832239 27.2667072 6.98007813 38.88460398 2.8125 50.8125 C2.46832031 51.78832031 2.12414062 52.76414063 1.76953125 53.76953125 C1.51558594 54.50558594 1.26164063 55.24164063 1 56 C0.67 56 0.34 56 0 56 C0 37.52 0 19.04 0 0 Z " fill="#FCFDFF" transform="translate(0,0)"/>
<path d="M0 0 C1.67835937 -0.11214844 1.67835937 -0.11214844 3.390625 -0.2265625 C6.75 0.625 6.75 0.625 8.04833984 2.42163086 C8.47840332 3.14487549 8.9084668 3.86812012 9.3515625 4.61328125 C11.29765679 7.50285851 12.17279337 8.47504529 15.59179688 9.36328125 C19.05039999 9.5931706 22.4115758 9.56895009 25.875 9.4375 C27.05449219 9.44330078 28.23398438 9.44910156 29.44921875 9.45507812 C34.14791478 9.41210314 34.14791478 9.41210314 38.75 8.625 C41.05487308 6.33266331 41.05487308 6.33266331 42.75 3.625 C43.41 2.635 44.07 1.645 44.75 0.625 C47.46484375 0.26171875 47.46484375 0.26171875 50.6875 0.3125 C52.27884766 0.31830078 52.27884766 0.31830078 53.90234375 0.32421875 C56.75 0.625 56.75 0.625 59.75 2.625 C60.05195298 5.71848806 60.15919016 8.6123622 60.13818359 11.70874023 C60.14344055 12.65030975 60.14869751 13.59187927 60.15411377 14.5619812 C60.16735761 17.68601898 60.15855942 20.80955045 60.1484375 23.93359375 C60.15045714 26.09831338 60.15336766 28.26303234 60.15713501 30.42774963 C60.16156445 34.96988386 60.15510795 39.51184136 60.14111328 44.05395508 C60.12403135 49.88296058 60.13385256 55.71155142 60.15183067 61.54054165 C60.16266042 66.01258988 60.15922569 70.48453948 60.1514473 74.95659065 C60.14944252 77.10603954 60.15191423 79.25549732 60.15888596 81.40493584 C60.1664859 84.40748757 60.15491598 87.40936393 60.13818359 90.41186523 C60.14425629 91.30495895 60.15032898 92.19805267 60.15658569 93.11820984 C60.14812622 93.93561646 60.13966675 94.75302307 60.13095093 95.59519958 C60.12981985 96.30514792 60.12868877 97.01509626 60.12752342 97.74655819 C59.63222476 100.2110138 58.71921467 101.10456349 56.75 102.625 C54.01097107 103.00595093 54.01097107 103.00595093 50.65795898 103.01318359 C49.40333359 103.02264008 48.14870819 103.03209656 46.85606384 103.0418396 C45.4860706 103.03647049 44.11608024 103.03031768 42.74609375 103.0234375 C41.3426956 103.02545822 39.93929848 103.02836964 38.53590393 103.03213501 C35.59618116 103.03655706 32.65673198 103.03013051 29.71704102 103.01611328 C25.94492844 102.99900527 22.17345544 103.00887289 18.40136623 103.02683067 C15.50433002 103.03765855 12.60744609 103.03422714 9.71040535 103.0264473 C8.31930529 103.02444332 6.92819149 103.0269115 5.53710747 103.03388596 C3.59562308 103.04148486 1.65409032 103.02785369 -0.28735352 103.01318359 C-1.39305191 103.01079681 -2.49875031 103.00841003 -3.63795471 103.00595093 C-4.49992966 102.88023712 -5.3619046 102.75452332 -6.25 102.625 C-8.27821546 99.58267681 -8.50034393 99.00662865 -8.50396729 95.59519958 C-8.50960693 94.77779297 -8.51524658 93.96038635 -8.52105713 93.11820984 C-8.51700867 92.22511612 -8.51296021 91.3320224 -8.50878906 90.41186523 C-8.5122937 89.4685434 -8.51579834 88.52522156 -8.51940918 87.55331421 C-8.52822391 84.42999958 -8.52237867 81.30691075 -8.515625 78.18359375 C-8.51697161 76.01790829 -8.51891211 73.85222312 -8.52142334 71.6865387 C-8.52437416 67.14622115 -8.52007785 62.60598224 -8.51074219 58.06567383 C-8.49934093 52.23555724 -8.50591172 46.40562464 -8.51788712 40.57551479 C-8.52510102 36.10352685 -8.52282006 31.63158282 -8.51763153 27.15959358 C-8.51629409 25.00931845 -8.51794604 22.85903938 -8.52259064 20.70876884 C-8.52764889 17.70865127 -8.51995579 14.70883525 -8.50878906 11.70874023 C-8.51283752 10.81362228 -8.51688599 9.91850433 -8.52105713 8.9962616 C-8.47014111 1.64198889 -7.29602182 0.3164941 0 0 Z M-5.25 4.625 C-5.25 35.645 -5.25 66.665 -5.25 98.625 C15.21 98.625 35.67 98.625 56.75 98.625 C56.75 67.605 56.75 36.585 56.75 4.625 C47.24107086 3.45895868 47.24107086 3.45895868 43.75 7.5625 C43.09 8.573125 42.43 9.58375 41.75 10.625 C38.77640551 12.11179725 36.08700821 11.73612605 32.7734375 11.72265625 C31.74556625 11.72053383 31.74556625 11.72053383 30.69692993 11.71836853 C28.50624239 11.71276675 26.3156567 11.70021406 24.125 11.6875 C22.64062648 11.68248522 21.15625135 11.67792228 19.671875 11.67382812 C16.03121685 11.66279677 12.39061836 11.64553099 8.75 11.625 C8.440625 10.84125 8.13125 10.0575 7.8125 9.25 C6.82124962 6.70169872 6.82124962 6.70169872 5.75 4.625 C2.12 4.625 -1.51 4.625 -5.25 4.625 Z " fill="#11467B" transform="translate(59.25,27.375)"/>
<path d="M0 0 C3.43674806 1.08528886 5.04307606 3.04987754 7.375 5.75 C8.2721875 6.74 8.2721875 6.74 9.1875 7.75 C10.74576643 10.37444873 10.88883672 11.74038491 10.375 14.75 C9.694375 15.595625 9.01375 16.44125 8.3125 17.3125 C6.13442187 19.48045141 6.13442187 19.48045141 6.53515625 21.640625 C7.57244308 24.24590354 8.98446025 25.87262769 10.875 27.9375 C11.5040625 28.63230469 12.133125 29.32710937 12.78125 30.04296875 C14.8909085 32.56157731 14.8909085 32.56157731 18.1875 33 C21.77116807 32.71892799 22.62695953 31.8775152 25.375 29.75 C30.38003621 29.21790313 32.94157092 30.85127273 36.75 33.90234375 C38.58901431 35.99333839 39.02022962 37.05776588 39.1875 39.8125 C38.84594233 43.11422414 38.24013788 43.92131134 36.0625 46.6875 C30.76556306 50.75259114 24.79945672 50.55207416 18.375 49.75 C6.49613267 45.17986308 -2.7533069 34.70331129 -8.625 23.75 C-10.37322617 18.5053215 -10.42964565 13.19934815 -9.625 7.75 C-7.2977254 3.70513118 -4.49096697 1.28313342 0 0 Z " fill="#E1F1FA" transform="translate(70.625,53.25)"/>
<path d="M0 0 C6.18443066 1.27953738 10.19333642 5.60250463 13.625 10.75 C14.05642213 16.18591885 14.11620115 18.49984208 10.625 22.75 C10.88361493 25.37925184 11.41729809 26.53283446 13.25390625 28.453125 C13.89199219 28.96359375 14.53007813 29.4740625 15.1875 30 C15.82816406 30.52078125 16.46882813 31.0415625 17.12890625 31.578125 C17.62261719 31.96484375 18.11632812 32.3515625 18.625 32.75 C19.285 32.255 19.945 31.76 20.625 31.25 C24.40089319 29.36205341 27.53608787 28.80293579 31.625 29.75 C34.59170301 31.43466349 37.10791872 33.45616318 39.625 35.75 C40.18316406 36.22308594 40.74132812 36.69617188 41.31640625 37.18359375 C43.47734657 39.77027157 43.2768778 42.13283745 43.17578125 45.39453125 C41.96510757 50.57209314 37.63116493 53.5029245 33.3125 56.1875 C25.04806802 57.91726483 18.01041563 56.83383575 10.625 52.75 C3.96495423 48.266109 -5.57917651 41.441681 -8.08984375 33.484375 C-8.18394531 32.91203125 -8.27804688 32.3396875 -8.375 31.75 C-9.035 31.75 -9.695 31.75 -10.375 31.75 C-13.12223409 25.12720353 -14.36733245 18.91932319 -13.375 11.75 C-10.61029246 6.00791512 -6.34880169 1.41084482 0 0 Z M-7.97265625 8.3671875 C-10.83400364 13.22908696 -10.26550112 18.34891714 -9.375 23.75 C-5.62632127 36.46210361 5.44717511 45.57890917 16.625 51.75 C19.30155801 53.08827901 21.44934052 52.95578556 24.4375 53 C25.47519531 53.02578125 26.51289062 53.0515625 27.58203125 53.078125 C31.01574386 52.70786587 32.82147071 51.7124705 35.625 49.75 C36.223125 49.358125 36.82125 48.96625 37.4375 48.5625 C39.06011991 46.08586962 39.34287364 43.75758836 39.234375 40.828125 C38.19789868 37.29347499 35.85996749 35.71017407 32.86328125 33.74609375 C29.46306201 32.23290718 27.10401902 32.63671391 23.625 33.75 C22.965 34.41 22.305 35.07 21.625 35.75 C18.9375 36.3125 18.9375 36.3125 15.625 35.75 C11.96807925 32.90657305 9.18543832 29.59065749 6.625 25.75 C6.88190951 23.09526844 7.45996017 21.93408288 9.25 19.9375 C10.9377686 17.69542204 10.9377686 17.69542204 10.5625 14.3125 C9.20892464 9.16891365 7.00252621 6.6683508 2.625 3.75 C-2.12890165 2.56152459 -4.87997055 5.02410931 -7.97265625 8.3671875 Z " fill="#14497E" transform="translate(70.375,50.25)"/>
<path d="M0 0 C0.79135345 0.24114784 0.79135345 0.24114784 1.59869385 0.48716736 C4.57704105 1.12323522 7.37426616 1.16399198 10.42089844 1.20532227 C11.72194519 1.22526749 13.02299194 1.24521271 14.36346436 1.26576233 C15.7787667 1.28274418 17.19407028 1.29962307 18.609375 1.31640625 C20.06097999 1.33698755 21.51257914 1.35798433 22.96417236 1.37937927 C26.77812972 1.43447851 30.59214007 1.48394115 34.40618896 1.53222656 C38.30078834 1.58253049 42.19531109 1.63817007 46.08984375 1.69335938 C53.72649755 1.80079228 61.36321521 1.90227001 69 2 C69 2.33 69 2.66 69 3 C67.76971321 3.00879936 67.76971321 3.00879936 66.51457214 3.01777649 C58.78932429 3.07565291 51.06440083 3.14769996 43.33944225 3.23571491 C39.36783561 3.28046453 35.39633262 3.31971021 31.42456055 3.34643555 C27.5923738 3.37242319 23.760585 3.41279253 19.92864418 3.46318626 C18.46585345 3.47988589 17.00299385 3.49138088 15.54012108 3.49761391 C13.49271183 3.50722194 11.44632776 3.5352383 9.39916992 3.56762695 C8.23334885 3.57873001 7.06752777 3.58983307 5.86637878 3.60127258 C2.6145757 4.05361442 1.94344592 4.45019737 0 7 C-0.44724638 9.17096813 -0.44724638 9.17096813 -0.3742218 11.61703491 C-0.38123611 12.56473251 -0.38825043 13.51243011 -0.39547729 14.48884583 C-0.38783356 15.52683823 -0.38018982 16.56483063 -0.37231445 17.63427734 C-0.37596512 18.72883743 -0.37961578 19.82339752 -0.38337708 20.9511261 C-0.39150143 24.57955304 -0.37785465 28.20753598 -0.36328125 31.8359375 C-0.3627628 34.35315958 -0.36327992 36.87038208 -0.36479187 39.38760376 C-0.36470206 44.66860937 -0.35459304 49.94949965 -0.33618164 55.23046875 C-0.31503557 61.33063671 -0.31149936 67.43061639 -0.3177436 73.53081357 C-0.32344571 79.40252212 -0.31767557 85.27416344 -0.30657005 91.14586258 C-0.30271862 93.64254108 -0.3015696 96.13922525 -0.3031559 98.63590622 C-0.30352658 102.12635846 -0.29090428 105.61652435 -0.2746582 109.10693359 C-0.27713562 110.14087753 -0.27961304 111.17482147 -0.28216553 112.24009705 C-0.27508072 113.1934343 -0.26799591 114.14677155 -0.26069641 115.1289978 C-0.25864354 115.95379324 -0.25659067 116.77858868 -0.25447559 117.62837791 C-0.05188713 120.52329894 -0.05188713 120.52329894 2 125 C24.11 125 46.22 125 69 125 C69 125.33 69 125.66 69 126 C38.31 126.495 38.31 126.495 7 127 C7 127.33 7 127.66 7 128 C0.73237148 128.60265659 0.73237148 128.60265659 -2.20202637 126.18798828 C-4.8883353 121.42489208 -4.55802274 117.06214169 -4.51757812 111.6796875 C-4.5245874 110.5360675 -4.53159668 109.39244751 -4.53881836 108.21417236 C-4.5564223 104.43420119 -4.54476621 100.65497878 -4.53125 96.875 C-4.5339442 94.24853369 -4.53782602 91.62206836 -4.54284668 88.99560547 C-4.55011797 83.49112843 -4.54054924 77.98686627 -4.52148438 72.48242188 C-4.49971632 66.12420112 -4.50676808 59.76649346 -4.52879 53.40828514 C-4.54914865 47.28451117 -4.54696911 41.16096416 -4.53526306 35.03717041 C-4.5325932 32.43442717 -4.5358746 29.83167084 -4.54518127 27.22894287 C-4.55533071 23.59237901 -4.53986627 19.95680273 -4.51757812 16.3203125 C-4.52567505 15.24275696 -4.53377197 14.16520142 -4.54211426 13.05499268 C-4.45880358 5.72409891 -4.45880358 5.72409891 -1.96765137 1.79248047 C-1.31832642 1.20096191 -0.66900146 0.60944336 0 0 Z " fill="#255486" transform="translate(48,22)"/>
<path d="M0 0 C0.33 0 0.66 0 1 0 C1.33 2.31 1.66 4.62 2 7 C2.66 5.68 3.32 4.36 4 3 C4.06316406 3.73863281 4.12632813 4.47726563 4.19140625 5.23828125 C5.64968574 17.31897557 11.23933572 25.30863704 20.46875 33.05078125 C27.43626254 38.416196 32.27211231 40.56325807 41.203125 40.46875 C45.3723982 39.76998913 48.04327266 37.95672734 51 35 C51.39764263 33.01178687 51.73775349 31.01055661 52 29 C52.66 29.99 53.32 30.98 54 32 C54.33 30.35 54.66 28.7 55 27 C55.33 27 55.66 27 56 27 C56.58177303 31.07241121 56.9620599 34.5487571 54.6171875 38.0859375 C49.91954721 42.90559442 46.05401377 45.02847359 39.3125 45.375 C27.78589179 45.06762378 19.49032545 38.50841548 11.62890625 30.62109375 C5.68970122 24.19489508 5.68970122 24.19489508 5 20 C4.34 20 3.68 20 3 20 C0.18447274 13.21256822 -0.3689719 7.31110994 0 0 Z " fill="#184D82" transform="translate(57,62)"/>
<path d="M0 0 C1.32 0.33 2.64 0.66 4 1 C3.67 32.02 3.34 63.04 3 95 C2.34 95 1.68 95 1 95 C0.505 95.99 0.505 95.99 0 97 C0 64.99 0 32.98 0 0 Z " fill="#0D4379" transform="translate(51,30)"/>
<path d="M0 0 C0.625 1.875 0.625 1.875 1 4 C-1 6 -1 6 -3.63223267 6.24050903 C-4.74697968 6.23606781 -5.86172668 6.23162659 -7.01025391 6.22705078 C-8.90198837 6.22682419 -8.90198837 6.22682419 -10.8319397 6.22659302 C-12.21348222 6.21637898 -13.59502315 6.20594697 -14.9765625 6.1953125 C-16.38617757 6.19158288 -17.79579523 6.18873567 -19.20541382 6.18673706 C-22.91759382 6.17909655 -26.62961761 6.15944461 -30.34173584 6.1373291 C-34.12884406 6.11687959 -37.9159775 6.10773727 -41.703125 6.09765625 C-49.13548793 6.076199 -56.56772208 6.04205816 -64 6 C-64.33 4.35 -64.66 2.7 -65 1 C-64.20042374 1.00222061 -63.40084747 1.00444122 -62.57704163 1.00672913 C-55.05740361 1.02673092 -47.53777841 1.04197355 -40.01812077 1.05181217 C-36.15179882 1.05704026 -32.28549879 1.06413654 -28.41918945 1.07543945 C-24.69096599 1.086271 -20.96276366 1.0922774 -17.23452568 1.09487724 C-15.80910344 1.09673101 -14.38368241 1.10035071 -12.95826912 1.10573006 C-10.96836592 1.11294393 -8.97844166 1.11340808 -6.98852539 1.11352539 C-5.28642662 1.11685631 -5.28642662 1.11685631 -3.54994202 1.12025452 C-1.06540695 1.28974423 -1.06540695 1.28974423 0 0 Z " fill="#1E5489" transform="translate(117,124)"/>
<path d="M0 0 C1.17079102 0.01160156 1.17079102 0.01160156 2.36523438 0.0234375 C3.53022461 0.01183594 3.53022461 0.01183594 4.71875 0 C8.62825605 0.01346944 10.60720469 0.05975105 13.92773438 2.2734375 C14.36523438 5.7109375 14.36523438 5.7109375 13.92773438 9.2734375 C11.48634756 11.94178742 9.98890629 12.2666034 6.36132812 12.671875 C5.04261719 12.66414062 3.72390625 12.65640625 2.36523438 12.6484375 C1.69298828 12.66003906 1.02074219 12.67164063 0.328125 12.68359375 C-2.54928885 12.66644928 -4.59083996 12.59535466 -7.01757812 10.97265625 C-8.78269307 8.12885995 -8.36676597 5.5129413 -8.07226562 2.2734375 C-5.45410824 -0.34471989 -3.56758224 0.01231262 0 0 Z " fill="#1E5185" transform="translate(82.072265625,132.7265625)"/>
<path d="M0 0 C-0.33 0.66 -0.66 1.32 -1 2 C-22.12 2 -43.24 2 -65 2 C-65.33 1.34 -65.66 0.68 -66 0 C-57.83773412 -0.15382269 -49.67539372 -0.30200377 -41.51289654 -0.4429636 C-37.7228147 -0.50859303 -33.93278847 -0.57617258 -30.14282227 -0.64819336 C-26.48598455 -0.7176128 -22.82908956 -0.78192987 -19.17209816 -0.84269524 C-17.77621001 -0.86678934 -16.38035246 -0.89272851 -14.98453331 -0.92053413 C-13.03103879 -0.95913523 -11.07740711 -0.99059597 -9.1237793 -1.02172852 C-8.0112529 -1.04171402 -6.8987265 -1.06169952 -5.75248718 -1.08229065 C-3 -1 -3 -1 0 0 Z " fill="#083972" transform="translate(120,148)"/>
<path d="M0 0 C0.66 0.33 1.32 0.66 2 1 C1.35125916 1.43858337 0.70251831 1.87716675 0.03411865 2.32904053 C-3.14129187 6.49860695 -2.57076738 10.6289289 -2.54589844 15.73535156 C-2.55623611 16.82833557 -2.56657379 17.92131958 -2.57722473 19.04742432 C-2.60673455 22.66197348 -2.60815369 26.27596466 -2.609375 29.890625 C-2.62435104 32.39598667 -2.64107696 34.90133844 -2.65948486 37.40667725 C-2.69876251 43.32809429 -2.72038412 49.24940926 -2.73345876 55.17092681 C-2.75088822 62.57499802 -2.79571856 69.97886058 -2.83984375 77.3828125 C-2.91522877 90.58849281 -2.96623168 103.79415108 -3 117 C-3.33 117 -3.66 117 -4 117 C-4.0934352 102.33577836 -4.1639751 87.67159611 -4.20724869 73.0071373 C-4.22787534 66.19817912 -4.25599754 59.38940588 -4.30175781 52.58056641 C-4.34587951 46.01240702 -4.36912311 39.44438957 -4.37950897 32.87607574 C-4.38691248 30.36737286 -4.40136936 27.85868075 -4.42292023 25.35005951 C-4.45186289 21.84218922 -4.45595969 18.33511848 -4.45410156 14.82714844 C-4.46848267 13.78489609 -4.48286377 12.74264374 -4.49768066 11.66880798 C-4.45705348 4.60313786 -4.45705348 4.60313786 -1.97161865 1.32330322 C-1.3209845 0.88661316 -0.67035034 0.4499231 0 0 Z " fill="#B9D2E3" transform="translate(51,25)"/>
<path d="M0 0 C1.32 0 2.64 0 4 0 C3.52295496 4.29340534 1.23600151 6.31937605 -2 9 C-5.25874329 9.60127258 -5.25874329 9.60127258 -8.9934082 9.56762695 C-9.67688828 9.56835709 -10.36036835 9.56908722 -11.06455994 9.56983948 C-13.31079075 9.56637186 -15.55491543 9.52755641 -17.80078125 9.48828125 C-19.36304085 9.47895003 -20.92531512 9.47183537 -22.4875946 9.46684265 C-26.58969874 9.44779676 -30.69091074 9.39871813 -34.79266357 9.34332275 C-38.98209567 9.29207743 -43.17167262 9.26931742 -47.36132812 9.24414062 C-55.57462712 9.19059581 -63.78720243 9.10531371 -72 9 C-72 8.67 -72 8.34 -72 8 C-49.23 8 -26.46 8 -3 8 C-2.67 6.35 -2.34 4.7 -2 3 C-1.34 2.01 -0.68 1.02 0 0 Z " fill="#085091" transform="translate(122,142)"/>
<path d="M0 0 C4.16812045 0.86692987 5.23081554 2.11877175 7.63671875 5.56640625 C10.32421875 10.13450552 10.32421875 10.13450552 10.32421875 12.69140625 C8.01171875 12.50390625 8.01171875 12.50390625 5.32421875 11.69140625 C2.32421875 7.65692349 2.32421875 7.65692349 2.32421875 4.69140625 C1.63714844 4.72621094 0.95007812 4.76101562 0.2421875 4.796875 C-0.65886719 4.82394531 -1.55992188 4.85101563 -2.48828125 4.87890625 C-3.38160156 4.91371094 -4.27492188 4.94851562 -5.1953125 4.984375 C-8.0922564 4.64221627 -8.90133153 3.93747052 -10.67578125 1.69140625 C-8.23391304 -0.75046196 -3.21524355 0.00353712 0 0 Z " fill="#205387" transform="translate(62.67578125,27.30859375)"/>
<path d="M0 0 C1.93166016 0.01740234 1.93166016 0.01740234 3.90234375 0.03515625 C5.19269531 0.04417969 6.48304687 0.05320313 7.8125 0.0625 C8.81152344 0.07410156 9.81054688 0.08570313 10.83984375 0.09765625 C11.40234375 2.03515625 11.40234375 2.03515625 11.83984375 4.09765625 C10.83984375 5.09765625 10.83984375 5.09765625 7.6796875 5.1953125 C5.74802734 5.17791016 5.74802734 5.17791016 3.77734375 5.16015625 C2.48699219 5.15113281 1.19664063 5.14210937 -0.1328125 5.1328125 C-1.13183594 5.12121094 -2.13085938 5.10960937 -3.16015625 5.09765625 C-3.72265625 3.16015625 -3.72265625 3.16015625 -4.16015625 1.09765625 C-3.16015625 0.09765625 -3.16015625 0.09765625 0 0 Z " fill="#5BBAF4" transform="translate(81.16015625,135.90234375)"/>
<path d="M0 0 C5.52602761 1.04264672 9.40629854 4.71879854 13.3125 8.625 C13.4375 11.75 13.4375 11.75 13.3125 14.625 C12.3225 15.12 12.3225 15.12 11.3125 15.625 C11.18875 14.201875 11.18875 14.201875 11.0625 12.75 C10.67624675 9.56736333 10.67624675 9.56736333 8.5 8.4375 C7.778125 8.169375 7.05625 7.90125 6.3125 7.625 C5.735 7.08875 5.1575 6.5525 4.5625 6 C1.14176763 3.90955244 -1.72373789 4.42681189 -5.6875 4.625 C-4.07046378 1.75026895 -3.26832939 0.7600766 0 0 Z " fill="#14477C" transform="translate(98.6875,79.375)"/>
<path d="M0 0 C8.58 0 17.16 0 26 0 C25.67 0.99 25.34 1.98 25 3 C17.08 3 9.16 3 1 3 C0.67 2.01 0.34 1.02 0 0 Z " fill="#083570" transform="translate(72,37)"/>
<path d="M0 0 C0.33 0 0.66 0 1 0 C1.58663727 4.10646092 1.96021137 7.56365077 -0.41796875 11.12109375 C-3.42710526 14.20722309 -5.67409682 16.23435342 -10 17 C-10 16.34 -10 15.68 -10 15 C-12.97 15 -15.94 15 -19 15 C-19 14.67 -19 14.34 -19 14 C-17.87851563 13.85304688 -17.87851563 13.85304688 -16.734375 13.703125 C-10.73705281 12.85530314 -10.73705281 12.85530314 -5.375 10.25 C-3.69751753 7.50502868 -3.28939053 5.1832958 -3 2 C-2.01 3.485 -2.01 3.485 -1 5 C-0.67 3.35 -0.34 1.7 0 0 Z " fill="#396997" transform="translate(112,89)"/>
<path d="M0 0 C0.78955078 -0.01224609 1.57910156 -0.02449219 2.39257812 -0.03710938 C4.45057435 -0.04237279 6.50812009 0.06543715 8.5625 0.1875 C10.5625 2.1875 10.5625 2.1875 10.5625 5.1875 C9.5725 4.8575 8.5825 4.5275 7.5625 4.1875 C5.23144093 4.06702459 2.89663858 4.01215697 0.5625 4 C-1.29375 3.97873047 -1.29375 3.97873047 -3.1875 3.95703125 C-6.58509425 3.92878981 -6.58509425 3.92878981 -9.4375 6.1875 C-9.480221 4.52138095 -9.47813832 2.85367115 -9.4375 1.1875 C-7.33618615 -0.91381385 -2.89603678 0.00235259 0 0 Z " fill="#164A7D" transform="translate(84.4375,132.8125)"/>
<path d="M0 0 C5.94 0 11.88 0 18 0 C18 0.99 18 1.98 18 3 C12.06 3 6.12 3 0 3 C0 2.01 0 1.02 0 0 Z " fill="#18477B" transform="translate(76,31)"/>
<path d="M0 0 C0.99 0 1.98 0 3 0 C3.2475 0.804375 3.495 1.60875 3.75 2.4375 C4.36875 3.7059375 4.36875 3.7059375 5 5 C7.01508358 5.73323796 7.01508358 5.73323796 9 6 C9.33 6.66 9.66 7.32 10 8 C6.6875 8.25 6.6875 8.25 3 8 C1.0625 6.25 1.0625 6.25 0 4 C0 2.68 0 1.36 0 0 Z " fill="#144B82" transform="translate(45,142)"/>
<path d="M0 0 C0.33 0 0.66 0 1 0 C1.33 2.31 1.66 4.62 2 7 C2.66 5.68 3.32 4.36 4 3 C4.33 6.63 4.66 10.26 5 14 C4.01 13.67 3.02 13.34 2 13 C1.67 13.66 1.34 14.32 1 15 C-0.00109515 11.68929162 -0.10356134 8.69915231 -0.0625 5.25 C-0.05347656 4.26515625 -0.04445312 3.2803125 -0.03515625 2.265625 C-0.02355469 1.51796875 -0.01195312 0.7703125 0 0 Z " fill="#326494" transform="translate(57,62)"/>
<path d="M0 0 C3.63 0 7.26 0 11 0 C10.67 0.99 10.34 1.98 10 3 C6.7 3 3.4 3 0 3 C0 2.01 0 1.02 0 0 Z " fill="#0F447C" transform="translate(91,104)"/>
<path d="M0 0 C1.32 0 2.64 0 4 0 C3.45912682 3.78611227 1.88277668 5.55400767 -1 8 C-1.66 8 -2.32 8 -3 8 C-2.45276317 4.62537285 -1.9451 2.91765 0 0 Z " fill="#185289" transform="translate(122,142)"/>
<path d="M0 0 C2.0625 0.25 2.0625 0.25 4 1 C4.33 1.66 4.66 2.32 5 3 C4.38125 3.28875 3.7625 3.5775 3.125 3.875 C0.86674235 4.93720042 0.86674235 4.93720042 -1 7 C-1.66 6.67 -2.32 6.34 -3 6 C-2.42655063 3.13275314 -2.1385485 2.1385485 0 0 Z " fill="#114D86" transform="translate(48,22)"/>
<path d="M0 0 C4.95 0 9.9 0 15 0 C15.33 1.32 15.66 2.64 16 4 C15.46890625 3.68289062 14.9378125 3.36578125 14.390625 3.0390625 C11.45464152 1.7629651 8.93825671 1.58292979 5.75 1.375 C4.67234375 1.30023438 3.5946875 1.22546875 2.484375 1.1484375 C1.25460938 1.07496094 1.25460938 1.07496094 0 1 C0 0.67 0 0.34 0 0 Z " fill="#093E75" transform="translate(79,134)"/>
<path d="M0 0 C0.99 0 1.98 0 3 0 C1.4169423 4.2742558 -1.50568404 6.26531794 -5 9 C-4.42636089 5.12793601 -2.65894107 2.81534937 0 0 Z " fill="#275687" transform="translate(81,67)"/>
<path d="M0 0 C0.33 0.99 0.66 1.98 1 3 C-0.62339805 4.70884005 -2.29319053 6.37446717 -4 8 C-4.66 8 -5.32 8 -6 8 C-4.55746343 4.63408134 -2.66735273 2.48952921 0 0 Z " fill="#0F477E" transform="translate(110,97)"/>
<path d="M0 0 C0.66 0.33 1.32 0.66 2 1 C0.1875 4 0.1875 4 -2 7 C-2.99 7 -3.98 7 -5 7 C-3.47793991 4.37098712 -2.15634036 2.15634036 0 0 Z " fill="#205285" transform="translate(67,51)"/>
</svg>
